<?xml version="1.0" encoding="UTF-8" standalone="no"?>
<!-- Created with Inkscape (http://www.inkscape.org/) -->

<svg
   xmlns:dc="http://purl.org/dc/elements/1.1/"
   xmlns:cc="http://creativecommons.org/ns#"
   xmlns:rdf="http://www.w3.org/1999/02/22-rdf-syntax-ns#"
   xmlns:svg="http://www.w3.org/2000/svg"
   xmlns="http://www.w3.org/2000/svg"
   xmlns:sodipodi="http://sodipodi.sourceforge.net/DTD/sodipodi-0.dtd"
   xmlns:inkscape="http://www.inkscape.org/namespaces/inkscape"
   width="210mm"
   height="297mm"
   viewBox="0 0 744.09448819 1052.3622047"
   id="svg5906"
   version="1.1"
   inkscape:version="0.91 r13725"
   sodipodi:docname="fullstack_overview.svg"
   inkscape:export-filename="/home/compsci/4a_Lewis_code/websites/FullStack/images/fullstack_overview.png"
   inkscape:export-xdpi="90"
   inkscape:export-ydpi="90">
  <defs
     id="defs5908">
    <inkscape:perspective
       sodipodi:type="inkscape:persp3d"
       inkscape:vp_x="0 : 526.1811 : 1"
       inkscape:vp_y="0 : 1000 : 0"
       inkscape:vp_z="744.09449 : 526.1811 : 1"
       inkscape:persp3d-origin="372.04724 : 350.7874 : 1"
       id="perspective5914" />
  </defs>
  <sodipodi:namedview
     id="base"
     pagecolor="#ffffff"
     bordercolor="#666666"
     borderopacity="1.0"
     inkscape:pageopacity="0.0"
     inkscape:pageshadow="2"
     inkscape:zoom="0.7"
     inkscape:cx="184.09555"
     inkscape:cy="543.18512"
     inkscape:document-units="px"
     inkscape:current-layer="layer1"
     showgrid="false"
     inkscape:window-width="1920"
     inkscape:window-height="1149"
     inkscape:window-x="0"
     inkscape:window-y="0"
     inkscape:window-maximized="1" />
  <metadata
     id="metadata5911">
    <rdf:RDF>
      <cc:Work
         rdf:about="">
        <dc:format>image/svg+xml</dc:format>
        <dc:type
           rdf:resource="http://purl.org/dc/dcmitype/StillImage" />
        <dc:title></dc:title>
      </cc:Work>
    </rdf:RDF>
  </metadata>
  <g
     inkscape:label="Layer 1"
     inkscape:groupmode="layer"
     id="layer1">
    <g
       sodipodi:type="inkscape:box3d"
       id="g5972"
       style="fill:#e9afaf;fill-opacity:1;stroke:#ff00da;stroke-width:9.60000038;stroke-miterlimit:4;stroke-dasharray:none;stroke-opacity:0.69019608"
       inkscape:perspectiveID="#perspective5914"
       inkscape:corner0="4.1107734 : 1.9426688 : 0 : 1"
       inkscape:corner7="3.0840026 : 1.2777222 : 0.25 : 1">
      <path
         sodipodi:type="inkscape:box3dside"
         id="path5984"
         style="fill:#e9e9ff;fill-rule:evenodd;stroke:none;stroke-width:1px;stroke-linecap:butt;stroke-linejoin:round;stroke-opacity:1"
         inkscape:box3dsidetype="11"
         d="m 104.10268,196.51319 24.66302,-78.1018 0,153.42551 -24.66302,48.71559 z"
         points="128.7657,118.41139 128.7657,271.8369 104.10268,320.55249 104.10268,196.51319 " />
      <path
         sodipodi:type="inkscape:box3dside"
         id="path5974"
         style="fill:#353564;fill-rule:evenodd;stroke:none;stroke-width:1px;stroke-linecap:butt;stroke-linejoin:round;stroke-opacity:1"
         inkscape:box3dsidetype="6"
         d="m 72.796661,180.38706 0,130.10684 31.306019,10.05859 0,-124.0393 z"
         points="72.796661,310.4939 104.10268,320.55249 104.10268,196.51319 72.796661,180.38706 " />
      <path
         sodipodi:type="inkscape:box3dside"
         id="path5976"
         style="fill:#4d4d9f;fill-rule:evenodd;stroke:none;stroke-width:1px;stroke-linecap:butt;stroke-linejoin:round;stroke-opacity:1"
         inkscape:box3dsidetype="5"
         d="M 72.796661,180.38706 91.098678,93.449985 128.7657,118.41139 104.10268,196.51319 Z"
         points="91.098678,93.449985 128.7657,118.41139 104.10268,196.51319 72.796661,180.38706 " />
      <path
         sodipodi:type="inkscape:box3dside"
         id="path5982"
         style="fill:#afafde;fill-rule:evenodd;stroke:none;stroke-width:1px;stroke-linecap:butt;stroke-linejoin:round;stroke-opacity:1"
         inkscape:box3dsidetype="13"
         d="M 72.796661,310.4939 91.098678,256.26736 128.7657,271.8369 104.10268,320.55249 Z"
         points="91.098678,256.26736 128.7657,271.8369 104.10268,320.55249 72.796661,310.4939 " />
      <path
         sodipodi:type="inkscape:box3dside"
         id="path5980"
         style="fill:#d7d7ff;fill-rule:evenodd;stroke:none;stroke-width:1px;stroke-linecap:butt;stroke-linejoin:round;stroke-opacity:1"
         inkscape:box3dsidetype="14"
         d="m 91.098678,93.449985 0,162.817375 37.667022,15.56954 0,-153.42551 z"
         points="91.098678,256.26736 128.7657,271.8369 128.7657,118.41139 91.098678,93.449985 " />
      <path
         sodipodi:type="inkscape:box3dside"
         id="path5978"
         style="fill:#8686bf;fill-rule:evenodd;stroke:none;stroke-width:1px;stroke-linecap:butt;stroke-linejoin:round;stroke-opacity:1"
         inkscape:box3dsidetype="3"
         d="m 72.796661,180.38706 18.302017,-86.937075 0,162.817375 -18.302017,54.22654 z"
         points="91.098678,93.449985 91.098678,256.26736 72.796661,310.4939 72.796661,180.38706 " />
    </g>
    <g
       sodipodi:type="inkscape:box3d"
       id="g5986"
       style="fill:#e9afaf;fill-opacity:1;stroke:#ff00da;stroke-width:9.60000038;stroke-miterlimit:4;stroke-dasharray:none;stroke-opacity:0.69019608"
       inkscape:perspectiveID="#perspective5914"
       inkscape:corner0="1.0346333 : -0.12784446 : 0 : 1"
       inkscape:corner7="0.34939413 : -0.3476445 : 0.25 : 1">
      <path
         sodipodi:type="inkscape:box3dside"
         id="path5996"
         style="fill:#afafde;fill-rule:evenodd;stroke:none;stroke-width:1px;stroke-linecap:butt;stroke-linejoin:round;stroke-opacity:1"
         inkscape:box3dsidetype="13"
         d="M 182.85715,783.24866 275.71428,913.79077 348.92641,853.20382 244.27152,755.1186 Z"
         points="275.71428,913.79077 348.92641,853.20382 244.27152,755.1186 182.85715,783.24866 " />
      <path
         sodipodi:type="inkscape:box3dside"
         id="path5988"
         style="fill:#353564;fill-rule:evenodd;stroke:none;stroke-width:1px;stroke-linecap:butt;stroke-linejoin:round;stroke-opacity:1"
         inkscape:box3dsidetype="6"
         d="m 182.85715,675.21935 0,108.02931 61.41437,-28.13006 0,-96.20802 z"
         points="182.85715,783.24866 244.27152,755.1186 244.27152,658.91058 182.85715,675.21935 " />
      <path
         sodipodi:type="inkscape:box3dside"
         id="path5998"
         style="fill:#e9e9ff;fill-rule:evenodd;stroke:none;stroke-width:1px;stroke-linecap:butt;stroke-linejoin:round;stroke-opacity:1"
         inkscape:box3dsidetype="11"
         d="m 244.27152,658.91058 104.65489,56.86618 0,137.42706 -104.65489,-98.08522 z"
         points="348.92641,715.77676 348.92641,853.20382 244.27152,755.1186 244.27152,658.91058 " />
      <path
         sodipodi:type="inkscape:box3dside"
         id="path5990"
         style="fill:#4d4d9f;fill-rule:evenodd;stroke:none;stroke-width:1px;stroke-linecap:butt;stroke-linejoin:round;stroke-opacity:1"
         inkscape:box3dsidetype="5"
         d="m 182.85715,675.21935 92.85713,75.68347 73.21213,-35.12606 -104.65489,-56.86618 z"
         points="275.71428,750.90282 348.92641,715.77676 244.27152,658.91058 182.85715,675.21935 " />
      <path
         sodipodi:type="inkscape:box3dside"
         id="path5994"
         style="fill:#d7d7ff;fill-rule:evenodd;stroke:none;stroke-width:1px;stroke-linecap:butt;stroke-linejoin:round;stroke-opacity:1"
         inkscape:box3dsidetype="14"
         d="m 275.71428,750.90282 0,162.88795 73.21213,-60.58695 0,-137.42706 z"
         points="275.71428,913.79077 348.92641,853.20382 348.92641,715.77676 275.71428,750.90282 " />
      <path
         sodipodi:type="inkscape:box3dside"
         id="path5992"
         style="fill:#8686bf;fill-rule:evenodd;stroke:none;stroke-width:1px;stroke-linecap:butt;stroke-linejoin:round;stroke-opacity:1"
         inkscape:box3dsidetype="3"
         d="m 182.85715,675.21935 92.85713,75.68347 0,162.88795 -92.85713,-130.54211 z"
         points="275.71428,750.90282 275.71428,913.79077 182.85715,783.24866 182.85715,675.21935 " />
    </g>
    <text
       xml:space="preserve"
       style="font-style:normal;font-weight:normal;font-size:40px;line-height:125%;font-family:sans-serif;letter-spacing:0px;word-spacing:0px;fill:#000000;fill-opacity:1;stroke:none;stroke-width:1px;stroke-linecap:butt;stroke-linejoin:miter;stroke-opacity:1"
       x="27.14286"
       y="1006.6479"
       id="text6000"
       sodipodi:linespacing="125%"><tspan
         sodipodi:role="line"
         id="tspan6002"
         x="27.14286"
         y="1006.6479">Client-the computer in front of you</tspan></text>
    <text
       xml:space="preserve"
       style="font-style:normal;font-weight:normal;font-size:40px;line-height:125%;font-family:sans-serif;letter-spacing:0px;word-spacing:0px;fill:#000000;fill-opacity:1;stroke:none;stroke-width:1px;stroke-linecap:butt;stroke-linejoin:miter;stroke-opacity:1"
       x="82.85714"
       y="56.647919"
       id="text6004"
       sodipodi:linespacing="125%"><tspan
         sodipodi:role="line"
         id="tspan6006"
         x="82.85714"
         y="56.647919">Server-a remote computer</tspan></text>
    <path
       style="fill:#e9afaf;fill-opacity:1;stroke:#ff00da;stroke-width:9.60000038;stroke-miterlimit:4;stroke-dasharray:none;stroke-opacity:0.69019608"
       id="path6008"
       d="m 159.51819,130.72816 c 2.70851,-3.8079 5.04602,-7.85268 7.37026,-11.90001 2.0859,-3.35494 3.97801,-6.82858 6.32155,-10.01422 2.23634,-2.90307 5.27665,-3.9498 8.75992,-4.47988 8.12968,-0.6022 16.30886,-0.32881 24.45402,-0.26746 3.89124,-0.25676 7.64524,0.5914 11.40146,1.4699 4.93411,1.15988 9.46285,3.46336 13.82385,5.98004 4.12851,2.41314 7.94412,5.24523 11.58372,8.33716 4.06076,3.46373 7.46561,7.58637 11.02906,11.53853 3.31498,3.64183 6.94758,7.03932 11.02205,9.81522 4.33847,2.52904 9.3069,3.66037 14.13688,4.86377 6.97384,1.61686 14.13966,1.98442 21.26806,2.23365 5.66472,0.13611 30.27906,0.29025 3.85675,0.0164 3.99527,-0.42564 7.36423,-2.34994 10.32564,-4.95265 2.92945,-3.26509 5.19597,-6.98512 6.73243,-11.08242 0.95888,-3.58895 1.71692,-7.25151 2.24883,-10.93131 0,0 14.0853,0.19593 14.0853,0.19593 l 0,0 c -0.5132,3.78457 -1.34636,7.5356 -2.27967,11.23291 -1.5699,4.31146 -3.89476,8.15707 -6.75084,11.75029 -2.97725,2.84541 -6.34179,5.08752 -10.4646,5.87397 -10.49352,0.14888 -20.99183,0.39342 -31.48417,0.017 -7.16763,-0.30523 -14.36611,-0.7741 -21.35369,-2.51783 -4.93326,-1.28619 -10.01748,-2.44922 -14.2946,-5.36272 -4.02002,-2.96367 -7.69749,-6.38419 -11.0039,-10.12873 -3.52379,-3.93379 -6.96725,-7.97274 -11.06053,-11.33898 -3.62239,-3.00725 -7.44328,-5.72991 -11.52805,-8.08198 -4.37257,-2.41021 -8.9048,-4.56346 -13.83185,-5.56913 -3.75247,-0.83008 -7.52344,-1.35634 -11.38041,-1.16334 -6.05275,-0.0286 -1.4077,-0.003 10.38455,-0.0147 0.5901,-5.6e-4 -1.18019,-0.005 -1.77028,-0.004 -1.73066,0.004 -3.46311,0.0125 -5.19069,0.12823 -3.27863,0.29839 -6.36146,0.76185 -8.6701,3.3625 -2.44617,3.05399 -4.19262,6.56714 -6.33441,9.83189 -2.37205,4.0519 -4.74497,8.10002 -7.30553,12.03754 0,0 -14.10101,-0.87574 -14.10101,-0.87574 z"
       inkscape:connector-curvature="0" />
    <text
       xml:space="preserve"
       style="font-style:normal;font-weight:normal;font-size:40px;line-height:125%;font-family:sans-serif;letter-spacing:0px;word-spacing:0px;fill:#000000;fill-opacity:1;stroke:none;stroke-width:1px;stroke-linecap:butt;stroke-linejoin:miter;stroke-opacity:1"
       x="372.85715"
       y="140.93362"
       id="text6010"
       sodipodi:linespacing="125%"><tspan
         sodipodi:role="line"
         id="tspan6012"
         x="372.85715"
         y="140.93362">MySQL Database</tspan></text>
    <path
       style="fill:#e9afaf;fill-opacity:1;stroke:#ff00da;stroke-width:9.60000038;stroke-miterlimit:4;stroke-dasharray:none;stroke-opacity:0.69019608"
       id="path6014"
       d="m 153.63702,244.81511 c 2.58194,-5.86636 5.70371,-10.69977 10.61008,-14.84346 5.82558,-4.01761 12.68337,-4.12309 19.49635,-4.36012 18.81542,-0.20264 37.63307,-0.12496 56.44938,-0.0925 4.66855,0.23023 9.72769,0.19809 14.03419,2.33944 1.91841,0.95391 2.38259,1.60843 3.91407,3.05755 3.49533,3.61206 6.1084,7.91841 8.73522,12.17054 2.22038,3.71339 4.77051,7.21297 8.46476,9.54514 3.18411,1.39598 6.66696,1.47597 10.08292,1.5524 -22.26624,-0.0928 -12.92171,0.75917 -8.17174,-0.99031 1.92381,-0.70856 3.60755,-1.8336 5.32347,-2.92839 3.28988,-2.5572 6.71823,-5.00368 9.41882,-8.20301 2.30358,-3.55617 3.95817,-7.52898 5.71773,-11.38256 0,0 14.04327,0.60262 14.04327,0.60262 l 0,0 c -1.80839,3.94971 -3.55883,7.96713 -5.70011,11.73679 -2.65451,3.42383 -6.19751,5.87394 -9.4949,8.63921 -9.26588,6.1765 -11.2155,4.99632 -25.06348,4.68144 -3.52863,-0.16835 -7.10219,-0.45785 -10.19097,-2.35276 -3.55732,-2.70646 -6.15074,-6.29067 -8.41272,-10.1206 -2.60036,-4.13745 -5.17829,-8.35064 -8.73077,-11.75949 -5.29546,-4.28821 -10.88559,-4.26234 -17.48727,-4.45138 -4.02601,-0.0184 -8.05573,0.12338 -12.07806,-0.0499 -1.86725,-0.0804 7.4759,-0.008 5.60693,-0.0151 -7.6286,-0.028 -15.25808,0.0173 -22.88588,0.12696 -6.57051,0.18645 -13.27959,0.0982 -19.14505,3.50159 -5.05225,3.86113 -8.06754,8.28635 -10.44322,14.18568 0,0 -14.09302,-0.58975 -14.09302,-0.58975 z"
       inkscape:connector-curvature="0" />
    <text
       xml:space="preserve"
       style="font-style:normal;font-weight:normal;font-size:40px;line-height:125%;font-family:sans-serif;letter-spacing:0px;word-spacing:0px;fill:#000000;fill-opacity:1;stroke:none;stroke-width:1px;stroke-linecap:butt;stroke-linejoin:miter;stroke-opacity:1"
       x="338.57144"
       y="240.93362"
       id="text6016"
       sodipodi:linespacing="125%"><tspan
         sodipodi:role="line"
         id="tspan6018"
         x="338.57144"
         y="240.93362">PHP prop lang</tspan></text>
    <text
       xml:space="preserve"
       style="font-style:normal;font-weight:normal;font-size:40px;line-height:125%;font-family:sans-serif;letter-spacing:0px;word-spacing:0px;fill:#000000;fill-opacity:1;stroke:none;stroke-width:1px;stroke-linecap:butt;stroke-linejoin:miter;stroke-opacity:1"
       x="320"
       y="315.21936"
       id="text6020"
       sodipodi:linespacing="125%"><tspan
         sodipodi:role="line"
         id="tspan6022"
         x="320"
         y="315.21936">The &quot;Back End&quot;</tspan></text>
    <path
       style="fill:#e9afaf;fill-opacity:1;stroke:#ff00da;stroke-width:9.60000038;stroke-miterlimit:4;stroke-dasharray:none;stroke-opacity:0.69019608"
       id="path6024"
       d="m 345.41314,714.95199 c 3.6153,-4.31057 8.05608,-7.76441 13.26035,-9.89301 12.07189,-2.67716 17.56179,-2.59179 25.49843,4.01456 4.03385,2.65831 7.86723,5.49417 11.06005,9.13486 2.64169,3.3124 5.27791,4.79812 9.35506,5.60234 4.86362,0.5403 13.59409,0.98967 -8.78055,0.19201 -0.58688,-0.0209 1.17109,-0.12344 1.74283,-0.25753 1.35019,-0.31666 1.70079,-0.60841 2.9054,-1.2582 2.82874,-2.06538 3.83925,-5.61269 5.2199,-8.68164 1.68084,-3.43231 3.93464,-6.53682 5.62577,-9.96226 1.04438,-2.92904 2.554,-5.64682 3.52556,-8.60151 0.70042,-1.96581 0.36337,-0.96228 1.00784,-3.01171 0,0 14.10084,0.41461 14.10084,0.41461 l 0,0 c -0.61561,2.11174 -0.28091,1.10167 -0.99046,3.03469 -0.94885,3.0403 -2.50285,5.79639 -3.55342,8.79858 -1.63456,3.45311 -3.89465,6.54054 -5.65797,9.92525 -1.49366,3.28253 -2.5283,7.0093 -5.24284,9.52186 -6.87553,4.71092 -15.94614,3.08198 -23.88121,1.76124 -3.88952,-1.11129 -6.85772,-3.23699 -9.36456,-6.4449 -3.2747,-3.48101 -7.1624,-6.16318 -11.05401,-8.91078 -1.67652,-1.28424 -3.30606,-2.58166 -5.36725,-3.19968 -0.60805,-0.18232 -2.50053,-0.34059 -1.86676,-0.37674 26.83226,-1.53046 13.10152,-0.30918 9.62677,0.0144 -5.19938,1.64584 -9.66185,4.94151 -13.08832,9.18312 0,0 -14.08145,-0.99952 -14.08145,-0.99952 z"
       inkscape:connector-curvature="0" />
    <path
       style="fill:#e9afaf;fill-opacity:1;stroke:#ff00da;stroke-width:9.60000038;stroke-miterlimit:4;stroke-dasharray:none;stroke-opacity:0.69019608"
       id="path6026"
       d="m 338.08584,779.41746 c 3.6201,-3.57394 8.0129,-6.24313 12.23361,-9.04183 3.80521,-2.74407 8.20827,-3.79001 12.7247,-4.62124 3.90867,-0.83891 7.87837,-1.25628 11.8629,-1.49449 9.78446,-1.0828 17.19076,-1.12509 25.47395,2.85225 3.57883,1.80762 6.68866,4.31166 10.40755,5.84709 5.52625,1.71499 20.86359,1.27134 -3.56151,1.04948 3.28672,-0.15284 6.28899,-1.04974 8.4436,-3.60837 2.05271,-2.79922 3.51762,-6.00545 4.61301,-9.28738 1.06114,-3.79428 1.14753,-7.76114 1.24081,-11.67352 0.54909,-4.13237 0.68752,-8.32818 1.35428,-12.44179 0.38073,-1.44006 0.10401,-0.79799 0.77203,-1.95024 0,0 14.16899,1.1442 14.16899,1.1442 l 0,0 c -0.81382,0.1688 -0.4222,-0.0535 -0.83655,1.06076 -0.82129,4.00857 -0.80916,8.17386 -1.3798,12.22484 -0.12041,4.04098 -0.20781,8.13889 -1.23613,12.07169 -1.05489,3.43972 -2.60872,6.75707 -4.5931,9.76058 -2.03909,3.00319 -4.97979,4.53396 -8.61448,4.81253 -7.93507,0.0637 -16.65604,1.27145 -24.37792,-1.54744 -3.5868,-1.74537 -6.74015,-4.21891 -10.38685,-5.8543 -1.8061,-0.77152 -3.63167,-1.54567 -5.56222,-1.96027 -0.66608,-0.14304 -2.70193,-0.2742 -2.02126,-0.30265 3.33931,-0.13954 17.28864,-0.20298 10.02647,-0.0641 -3.9863,0.17039 -7.97219,0.47077 -11.88464,1.29835 -4.41283,0.85706 -8.89162,1.39872 -12.69119,4.06618 -4.13369,2.70748 -8.4061,5.30547 -12.06768,8.64142 0,0 -14.10857,-0.98176 -14.10857,-0.98176 z"
       inkscape:connector-curvature="0" />
    <path
       style="fill:#e9afaf;fill-opacity:1;stroke:#ff00da;stroke-width:9.60000038;stroke-miterlimit:4;stroke-dasharray:none;stroke-opacity:0.69019608"
       id="path6028"
       d="m 330.06361,836.61281 c 5.62529,-2.93369 11.60787,-5.05039 17.52757,-7.29237 4.76886,-1.67261 9.61248,-3.19592 14.54132,-4.32834 8.14455,-1.55612 16.63916,-0.77279 24.82381,-0.68018 5.02067,0.85186 9.83609,2.62362 14.42578,4.79314 5.05181,2.54 9.49922,6.03187 14.06413,9.32341 4.67725,3.24816 9.23782,6.68212 14.62053,8.65537 5.42339,2.02928 11.16548,2.79518 16.84866,3.69968 6.44169,1.1889 12.89695,2.73468 19.47341,2.78845 -21.24413,-0.0995 -11.96464,0.73093 -7.33901,-1.31147 1.66157,-0.73365 2.92185,-1.83078 4.18457,-3.09714 1.6442,-2.31114 2.32204,-5.12738 3.27807,-7.76228 0,0 14.09259,0.49828 14.09259,0.49828 l 0,0 c -1.04734,2.79127 -1.77431,5.73711 -3.30849,8.31714 -6.42175,7.40249 -15.08626,5.85491 -24.74446,5.50005 -6.54363,-0.38018 -12.95518,-1.82286 -19.39452,-2.9738 -5.76606,-0.89884 -11.57236,-1.81198 -17.02426,-3.99254 -5.27528,-2.2861 -9.87112,-5.72542 -14.56409,-9.00513 -4.5329,-3.27035 -9.03889,-6.62733 -14.10829,-9.04277 -4.58735,-2.02156 -9.37413,-3.75485 -14.38931,-4.28545 23.65383,-0.23698 8.43056,-0.43987 3.00991,0.4856 -4.98787,0.97817 -9.84765,2.53748 -14.67624,4.09987 -5.85059,2.17856 -11.78662,4.22155 -17.30622,7.17079 0,0 -14.03546,-1.56031 -14.03546,-1.56031 z"
       inkscape:connector-curvature="0" />
    <text
       xml:space="preserve"
       style="font-style:normal;font-weight:normal;font-size:40px;line-height:125%;font-family:sans-serif;letter-spacing:0px;word-spacing:0px;fill:#000000;fill-opacity:1;stroke:none;stroke-width:1px;stroke-linecap:butt;stroke-linejoin:miter;stroke-opacity:1"
       x="460"
       y="708.07648"
       id="text6030"
       sodipodi:linespacing="125%"><tspan
         sodipodi:role="line"
         id="tspan6032"
         x="460"
         y="708.07648">HTML</tspan></text>
    <text
       xml:space="preserve"
       style="font-style:normal;font-weight:normal;font-size:40px;line-height:125%;font-family:sans-serif;letter-spacing:0px;word-spacing:0px;fill:#000000;fill-opacity:1;stroke:none;stroke-width:1px;stroke-linecap:butt;stroke-linejoin:miter;stroke-opacity:1"
       x="478.57141"
       y="769.50507"
       id="text6034"
       sodipodi:linespacing="125%"><tspan
         sodipodi:role="line"
         id="tspan6036"
         x="478.57141"
         y="769.50507">CSS</tspan></text>
    <text
       xml:space="preserve"
       style="font-style:normal;font-weight:normal;font-size:40px;line-height:125%;font-family:sans-serif;letter-spacing:0px;word-spacing:0px;fill:#000000;fill-opacity:1;stroke:none;stroke-width:1px;stroke-linecap:butt;stroke-linejoin:miter;stroke-opacity:1"
       x="505.71426"
       y="848.07648"
       id="text6038"
       sodipodi:linespacing="125%"><tspan
         sodipodi:role="line"
         id="tspan6040"
         x="505.71426"
         y="848.07648">JavaScript</tspan></text>
    <path
       style="fill:#0000ff;fill-opacity:1;stroke:#0087ff;stroke-width:9.60000038;stroke-miterlimit:4;stroke-dasharray:none;stroke-opacity:0.6901961"
       id="path6042"
       d="m 109.80842,309.16355 c 5.47386,2.52091 10.57031,5.56129 15.21693,9.3906 3.70107,2.88894 6.54756,6.52176 9.23524,10.31636 3.06214,4.24644 5.04595,9.10898 7.30056,13.79975 2.06289,4.04811 3.74969,8.22824 5.2363,12.51625 0.87592,4.5814 2.5671,8.92005 3.91773,13.36458 1.59816,5.76139 2.9702,11.5889 4.34297,17.4085 1.28174,5.63792 2.99842,11.16531 4.32225,16.79719 1.24575,5.95812 1.63353,12.03724 1.81532,18.10647 0.14828,5.61108 0.11842,11.22484 0.10786,16.8373 0.35462,6.17909 0.87886,12.34525 1.12944,18.5305 0.22302,6.45812 0.94309,12.88485 1.2862,19.33857 0.34086,7.14959 0.3446,14.30929 0.3641,21.46527 0.0108,7.24541 0.0266,14.49086 0.0257,21.73628 -0.16249,6.3349 1.60422,12.49516 2.71577,18.68389 0.93471,6.74686 1.58846,13.53097 2.54716,20.27458 0.88817,7.80704 2.53956,15.45676 3.35338,23.27683 1.08364,11.70385 1.99458,23.42162 3.86794,35.0317 1.49273,6.46627 3.13366,13.0251 5.81075,19.12215 1.87052,3.33735 5.16346,5.3172 8.42235,7.11834 3.51145,1.43411 7.3482,1.6661 11.09591,1.82035 -3.94472,-0.037 -7.89096,0.005 -11.83417,-0.11094 -0.69254,-0.0203 1.38135,-0.11003 2.07114,-0.1749 1.71508,-0.16129 2.58617,-0.32244 4.30675,-0.32638 14.93266,-0.0342 10.8164,-0.24543 17.82643,0.17539 4.07642,0.47612 7.9122,1.83923 11.62036,3.54165 3.14512,1.94793 6.0331,4.29503 9.02652,6.49432 3.12557,2.37868 4.31041,5.89094 5.3079,9.53304 0.58505,2.59109 0.72262,5.24372 1.1517,7.8585 0,0 -14.08456,0.22104 -14.08456,0.22104 l 0,0 c -0.39144,-2.5648 -0.52484,-5.16583 -1.13961,-7.6948 -0.97687,-3.40143 -2.23206,-6.50728 -5.25653,-8.59349 -2.95081,-2.12675 -5.71754,-4.57438 -8.98471,-6.19219 -3.70789,-1.5427 -7.5165,-2.80418 -11.56084,-3.03746 -5.95106,-0.26109 -1.85018,-0.0508 9.98232,-0.13452 0.707,-0.005 -1.41486,-0.0532 -2.12097,-0.0174 -0.72481,0.0367 -1.44328,0.15399 -2.16456,0.23428 -7.60065,0.84608 0.34975,0.22111 -18.06518,0.35063 -3.83319,-0.2599 -7.75087,-0.64688 -11.2015,-2.47931 -3.39544,-2.08345 -6.66287,-4.29551 -8.42152,-8.02525 -2.54014,-6.2461 -4.14476,-12.88448 -5.51029,-19.46962 -1.77213,-11.64391 -2.56571,-23.3947 -3.89979,-35.0922 -0.92946,-7.79412 -2.6589,-15.43413 -3.52796,-23.23495 -0.93753,-6.7285 -1.57454,-13.49677 -2.54669,-20.22037 -1.13901,-6.26735 -2.95768,-12.50941 -2.70748,-18.93366 0.007,-7.24335 0.04,-14.48669 0.017,-21.73008 -0.0362,-7.13262 -0.0743,-14.26814 -0.4147,-21.39417 -0.36695,-6.45856 -1.0771,-12.89201 -1.30816,-19.35601 -0.27452,-6.20553 -0.7516,-12.39502 -1.1655,-18.59187 0.008,-5.59664 0.0306,-11.19409 -0.0869,-16.78986 -0.20752,-5.97416 -0.52134,-11.96948 -1.81418,-17.82623 -1.34759,-5.6257 -3.07213,-11.15374 -4.32029,-16.79913 -1.36619,-5.79357 -2.70073,-11.60526 -4.39272,-17.31323 -1.38127,-4.42523 -3.00813,-8.76592 -3.97304,-13.31423 -1.46268,-4.22995 -3.15052,-8.3488 -5.14165,-12.36082 -2.21533,-4.64216 -4.25924,-9.41134 -7.36405,-13.55256 -2.64791,-3.67623 -5.50617,-7.15068 -9.11763,-9.94624 -4.65847,-3.70883 -9.79107,-6.6945 -15.324403,-8.92409 0,0 14.025593,-1.70831 14.025593,-1.70831 z"
       inkscape:connector-curvature="0" />
    <path
       style="fill:none;fill-rule:evenodd;stroke:#000000;stroke-width:1px;stroke-linecap:butt;stroke-linejoin:miter;stroke-opacity:1"
       d="m 172.85714,472.3622 c 6.54249,-1.96814 13.27499,-1.42857 20,-1.42857 0.33947,0 5.3941,-0.16009 5.71429,0 0.60234,0.30117 0.78969,1.21562 1.42857,1.42857 0.57815,0.19272 10.93487,0 11.42857,0 1.90476,0 3.80953,0 5.71429,0 0.47619,0 0.95238,0 1.42857,0 0.47619,0 1.00265,0.21296 1.42857,0 1.20468,-0.60233 1.65247,-2.2548 2.85714,-2.85714 0.42592,-0.21296 1.00266,0.21296 1.42857,0 4.73798,-4.73797 -1.34687,0.67344 2.85715,-1.42857 0.60234,-0.30117 0.78969,-1.21561 1.42857,-1.42857 0.90351,-0.30117 1.90476,0 2.85714,0 0.47619,0 1.03236,0.26414 1.42857,0 1.12067,-0.74711 1.65247,-2.25481 2.85715,-2.85714 0.85183,-0.42592 1.93319,0.23098 2.85714,0 6.56612,-1.64153 0.32412,-1.42858 4.28571,-1.42858"
       id="path6584"
       inkscape:connector-curvature="0" />
    <text
       xml:space="preserve"
       style="font-style:normal;font-weight:normal;font-size:40px;line-height:125%;font-family:sans-serif;letter-spacing:0px;word-spacing:0px;fill:#000000;fill-opacity:1;stroke:none;stroke-width:1px;stroke-linecap:butt;stroke-linejoin:miter;stroke-opacity:1"
       x="277.14285"
       y="456.64792"
       id="text6586"
       sodipodi:linespacing="125%"><tspan
         sodipodi:role="line"
         id="tspan6588"
         x="277.14285"
         y="456.64792">Internet Connection,</tspan><tspan
         sodipodi:role="line"
         x="277.14285"
         y="506.64792"
         id="tspan6590">wired or WiFi</tspan></text>
    <path
       style="fill:none;fill-rule:evenodd;stroke:#000000;stroke-width:1px;stroke-linecap:butt;stroke-linejoin:miter;stroke-opacity:1"
       d="m 60,82.362204 c 1.119471,4.903915 -5.637011,4.131164 -7.142857,7.142857 -0.212959,0.425918 0,0.952381 0,1.428572 0,1.019033 0.263648,6.088266 0,7.142857 -3.608433,14.43373 0.515848,-1.031697 -2.857143,5.71429 -0.473375,0.94675 0.399107,4.51696 0,5.71428 -0.336717,1.01015 -1.170321,1.82414 -1.428571,2.85714 -0.271595,1.08638 0,5.94659 0,7.14286 0,0.33947 0.160093,5.3941 0,5.71429 -0.30117,0.60234 -1.215613,0.78969 -1.428572,1.42857 -0.451754,1.35526 0,2.85714 0,4.28571 0,3.33334 0,6.66667 0,10 0,1.47806 -0.272147,8.91141 0,10 -0.86104,2.58563 2.314202,2.6569 2.857143,4.28572 0.301169,0.90351 -0.230986,1.93319 0,2.85714 0.258251,1.033 1.091854,1.84699 1.428571,2.85714 0.150585,0.45176 0,0.95238 0,1.42857 0,0.79818 -0.281012,6.29982 0,7.14286 0.336718,1.01015 1.091854,1.84699 1.428572,2.85714 0.301169,0.90351 -0.301169,1.95364 0,2.85715 0.336717,1.01015 1.170321,1.82414 1.428571,2.85714 0.280935,1.12374 0,7.08582 0,8.57143 0,5.23809 0,10.47619 0,15.71428 0,3.33334 0,6.66667 0,10 0,1.42858 0.280166,2.88489 0,4.28572 -0.208823,1.04412 -1.219748,1.81302 -1.428571,2.85714 -0.280166,1.40083 0,2.85714 0,4.28572 0,0.47619 0.264143,1.03235 0,1.42857 -0.747109,1.12066 -2.110034,1.73648 -2.857143,2.85714 -0.264143,0.39621 0,0.95238 0,1.42857 0,0.47619 0,0.95238 0,1.42857 0,3.33334 0,6.66667 0,10 0,0.95238 0.230986,1.9332 0,2.85715 -0.258251,1.033 -1.091854,1.84699 -1.428571,2.85714 -0.451754,1.35526 0.346479,2.8998 0,4.28571 0.86104,2.58563 -2.314203,2.6569 -2.857143,4.28572 -0.255371,0.76611 0,10.34543 0,11.42857 0,0.47619 0.212959,1.00265 0,1.42857 -0.602339,1.20468 -2.254805,1.65247 -2.857143,2.85714 -0.425918,0.85184 0.425918,2.00531 0,2.85715 -0.301169,0.60233 -1.127402,0.82623 -1.428572,1.42857 -0.212958,0.42591 0,0.95238 0,1.42857 0,0.95238 0.230987,1.9332 0,2.85714 -0.25825,1.033 -1.091853,1.84699 -1.428571,2.85714 -0.150585,0.45176 0,0.95239 0,1.42858 0,0.95238 0,1.90476 0,2.85714 0,2.38095 0,4.7619 0,7.14286 0,8.09523 0,16.19047 0,24.28571 0,7.61905 0,15.2381 0,22.85714 0,0.5293 -0.179054,11.07047 0,11.42857 0.767834,1.53567 1.826985,2.91218 2.857143,4.28572 0.404061,0.53875 1.127402,0.82623 1.428571,1.42857 0.212959,0.42592 0,0.95238 0,1.42857 0,0.95238 -0.230986,1.9332 0,2.85714 0.258251,1.03301 1.091854,1.84699 1.428572,2.85715 0.301169,0.90351 -0.30117,1.95363 0,2.85714 0.336717,1.01015 1.091854,1.84699 1.428571,2.85714 0.150585,0.45176 0,0.95238 0,1.42857 0.476191,1.42858 0.755137,2.93885 1.428572,4.28572 0.301169,0.60234 1.127402,0.82623 1.428571,1.42857 0.212959,0.42592 -0.212959,1.00265 0,1.42857 0.301169,0.60234 1.127402,0.82623 1.428571,1.42857 0.212959,0.42592 -0.212958,1.00266 0,1.42857 0.30117,0.60234 1.215613,0.7897 1.428572,1.42858 2.061723,6.18516 -2.730994,-0.52507 1.428571,5.71428 0.747109,1.12067 1.904762,1.90476 2.857143,2.85714 2.380953,2.38096 4.761905,4.76191 7.142857,7.14286 0.476191,0.47619 1.055017,0.86824 1.428572,1.42857 0.869988,1.30499 1.219403,3.46685 2.857143,4.28572 0.425917,0.21296 1.002653,-0.21296 1.428571,0 0.602339,0.30117 0.952381,0.95238 1.428571,1.42857 0.952381,0.95238 1.779647,2.04902 2.857143,2.85714 0.719419,3.14738 2.938845,0.75514 4.285715,1.42857 0.602338,0.30117 0.826232,1.12741 1.428571,1.42857 0.425918,0.21296 0.976818,-0.15058 1.428571,0 1.010153,0.33672 1.846991,1.09186 2.857143,1.42858 0.781583,0.26052 8.418722,0.0763 8.571429,0 0.602339,-0.30117 0.775243,-1.26524 1.428571,-1.42858 1.385918,-0.34648 2.959319,0.53056 4.285715,0 6.733501,-2.6934 -0.816828,-2.97949 5.714281,-4.28571 1.40083,-0.28017 2.85715,0 4.28572,0 1.42857,0 2.85714,0 4.28571,0 1.42857,0 2.8715,0.20203 4.28572,0 1.94365,-0.27766 3.76291,-1.21175 5.71428,-1.42857 2.36639,-0.26293 4.76191,0 7.14286,0 5.2381,0 10.47619,0 15.71429,0 1.90476,0 3.80952,0 5.71428,0 1.42857,0 2.85714,0 4.28572,0 0.47619,0 0.96659,0.11549 1.42857,0 12.47869,-3.11968 -2.96425,0.76784 7.14285,-4.28572 0.33593,-0.16796 4.77583,0 5.71429,0 6.19048,0 12.38095,0 18.57143,0 1.38176,0 8.14773,0.21185 8.57143,0 0.60234,-0.30116 0.82623,-1.1274 1.42857,-1.42857 0.42592,-0.21296 0.9666,0.1155 1.42857,0 1.46089,-0.36522 2.82483,-1.06335 4.28571,-1.42857 0.92395,-0.23098 1.95364,0.30117 2.85715,0 1.01015,-0.33672 1.84699,-1.09185 2.85714,-1.42857 0.45175,-0.15058 1.00265,0.21296 1.42857,0 0.60234,-0.30117 0.95238,-0.95238 1.42857,-1.42857 0.47619,-0.47619 0.95238,-0.95238 1.42857,-1.42857 1.90477,-1.90476 3.80953,-3.80953 5.71429,-5.71429 0.95238,-0.95238 1.73648,-2.11003 2.85714,-2.85714 0.88597,-0.59064 1.84699,-1.09186 2.85715,-1.42857 0.45175,-0.15059 0.96659,0.11549 1.42857,0 1.46088,-0.36522 2.80035,-1.18101 4.28571,-1.42857 1.40914,-0.23486 2.91211,0.39245 4.28572,0 2.04765,-0.58505 3.75688,-2.01826 5.71428,-2.85715 1.38409,-0.59318 2.85714,-0.95238 4.28572,-1.42857 2.85714,-0.95238 5.64965,-2.1267 8.57142,-2.85714 0.46198,-0.11549 1.03236,0.26414 1.42858,0 4.65121,-3.10081 0.82936,-2.65741 5.71428,-4.28572 0.77315,-0.25771 5.22761,0 5.71429,0 2.41918,0 6.44709,-0.35405 8.57143,0 12.54025,2.09005 -2.18371,0.52551 7.14285,2.85715 2.2409,0.56022 4.90196,-0.56023 7.14286,0 0.65333,0.16333 0.82623,1.1274 1.42857,1.42857 0.42592,0.21296 0.95238,0 1.42857,0 0.95238,0 1.9332,-0.23099 2.85715,0 1.033,0.25825 1.84699,1.09185 2.85714,1.42857 1.35526,0.45175 2.8998,-0.34648 4.28571,0 2.58563,-0.86104 2.6569,2.3142 4.28572,2.85714 0.90351,0.30117 1.90476,0 2.85714,0 0.47619,0 1.00265,-0.21296 1.42857,0 0.60234,0.30117 0.82623,1.12741 1.42857,1.42857 0.73288,0.36644 5.97336,-0.2339 7.14286,0 1.4766,0.29533 2.80036,1.18102 4.28571,1.42858 1.40914,0.23485 2.85715,0 4.28572,0 1.90476,0 3.80952,0 5.71428,0 6.19048,0 12.38096,0 18.57143,0 8.57143,0 17.14286,0 25.71429,0 2.38095,0 4.7619,0 7.14286,0 0.95238,0 1.90476,0 2.85714,0 0.47619,0 1.00265,0.21295 1.42857,0 1.53567,-0.76784 2.69159,-2.2195 4.28571,-2.85715 0.88427,-0.3537 1.91772,0.15657 2.85715,0 1.93667,-0.32278 3.77063,-1.1509 5.71428,-1.42857 1.41422,-0.20203 2.91211,0.39246 4.28572,0 2.04765,-0.58504 3.64828,-2.34064 5.71428,-2.85714 10.49403,-2.62351 0.84875,3.71788 12.85715,-1.42857 1.23796,-0.53056 1.65246,-2.25481 2.85714,-2.85715 13.98539,-6.99269 1.85691,-0.10708 7.14286,-1.42857 1.46088,-0.36522 2.82482,-1.06335 4.28571,-1.42857 0.46197,-0.11549 0.97682,0.15059 1.42857,0 1.01015,-0.33672 1.97118,-0.83793 2.85714,-1.42857 0.56034,-0.37355 0.7897,-1.21561 1.42858,-1.42857 0.9035,-0.30117 1.90476,0 2.85714,0 1.42857,0 2.85714,0 4.28571,0 5.71429,0 11.42857,0 17.14286,0 6.19048,0 12.38095,0 18.57143,0 1.04868,0 8.07339,-0.24902 8.57143,0 0.60234,0.30117 0.82623,1.1274 1.42857,1.42857 0.42592,0.21296 0.95238,0 1.42857,0 0.95238,0 1.95364,-0.30117 2.85714,0 0.63888,0.21296 0.7897,1.21561 1.42857,1.42857 1.80702,0.60234 3.90727,-0.60234 5.71429,0 0.63888,0.21296 0.82623,1.1274 1.42857,1.42857 0.42592,0.21296 0.95238,0 1.42857,0 0.47619,0 0.95238,0 1.42857,0 1.90477,0 3.80953,0 5.71429,0 5.2381,0 10.47619,0 15.71429,0 1.90476,0 3.80952,0 5.71428,0 1.90476,0 3.88281,-0.52328 5.71429,0 13.698,3.91372 -6.11497,2.85715 10,2.85715 11.14306,0 -2.71053,-0.45176 8.57143,1.42857 1.40913,0.23485 2.85714,0 4.28571,0 2.85714,0 5.71429,0 8.57143,0 0.95238,0 1.9332,-0.23099 2.85714,0 1.033,0.25825 1.84699,1.09185 2.85714,1.42857 0.71822,0.2394 8.1983,0 8.57143,0 4.28572,0 8.57143,0 12.85715,0 3.80952,0 7.61904,0 11.42857,0 0.47619,0 0.95238,0 1.42857,0 0.47619,0 1.03236,0.26414 1.42857,0 0.95238,-0.95238 1.90476,-1.90476 2.85714,-2.85714 0.47619,0 1.00266,0.21295 1.42857,0 0.60234,-0.30117 0.76822,-1.2965 1.42858,-1.42858 1.86777,-0.37355 3.83544,0.31315 5.71428,0 1.05031,-0.17505 1.82414,-1.17032 2.85714,-1.42857 2.81007,-0.70251 5.74906,-0.77725 8.57143,-1.42857 3.37794,-0.77952 6.56005,-2.42715 10,-2.85714 4.25262,-0.53158 8.57803,0.23773 12.85715,0 27.13469,-1.50748 -0.77393,-0.70577 24.28571,-4.28572 2.82843,-0.40406 5.76037,0.51111 8.57143,0 0.2082,-0.0378 8.13919,-3.04517 10,-4.28571 0.56033,-0.37355 0.86824,-1.05502 1.42857,-1.42857 0.88596,-0.59064 1.97118,-0.83793 2.85714,-1.42857 0.56034,-0.37356 0.82624,-1.1274 1.42857,-1.42857 6.56613,-3.28306 2.48681,0.37033 5.71429,-2.85715 0.47619,-0.47619 1.1274,-0.82623 1.42857,-1.42857 0.21296,-0.42592 -0.11549,-0.9666 0,-1.42857 0.36522,-1.46089 1.06335,-2.82483 1.42857,-4.28571 0.26365,-1.0546 0,-6.12383 0,-7.14286 0,-2.85714 0,-5.71429 0,-8.57143 0,-0.95238 0.23099,-1.9332 0,-2.85714 -0.36522,-1.46089 -1.06335,-2.82483 -1.42857,-4.28572 -0.23098,-0.92394 0.52829,-2.06471 0,-2.85714 -0.74711,-1.12066 -2.11003,-1.73648 -2.85714,-2.85714 -0.26414,-0.39622 0,-0.95238 0,-1.42857 0,-1.90477 0.46197,-3.8664 0,-5.71429 -0.32667,-1.30666 -2.25481,-1.65247 -2.85714,-2.85714 -0.42526,-0.85052 0.40092,-5.9401 0,-7.14286 -0.33672,-1.01015 -1.09186,-1.84699 -1.42858,-2.85714 -0.15058,-0.45176 0.21296,-1.00266 0,-1.42857 -0.76783,-1.53567 -2.21949,-2.69159 -2.85714,-4.28572 -0.3537,-0.88426 0.30117,-1.95363 0,-2.85714 -0.42592,-1.27775 -2.2548,-1.65247 -2.85714,-2.85714 -3.54254,-1.34818 -0.8077,-3.85166 -1.42857,-5.71429 -0.86487,-2.59461 -1.22264,-2.65121 -2.85715,-4.28571 -0.47619,-0.47619 -1.1274,-0.82624 -1.42857,-1.42858 -0.21296,-0.42591 0.21296,-1.00265 0,-1.42857 -0.76783,-1.53567 -2.08931,-2.75004 -2.85714,-4.28571 -0.21296,-0.42592 0,-0.95238 0,-1.42857 -0.47619,-0.95238 -0.83793,-1.97118 -1.42857,-2.85715 -2.17934,-3.269 -1.13082,0.89328 -2.85714,-4.28571 -0.15059,-0.45175 0.15058,-0.97682 0,-1.42857 -0.33672,-1.01015 -1.17032,-1.82414 -1.42858,-2.85714 -0.23098,-0.92395 0.30117,-1.95364 0,-2.85715 -0.21295,-0.63887 -1.1274,-0.82623 -1.42857,-1.42857 -0.21296,-0.42592 0.21296,-1.00265 0,-1.42857 -0.76783,-1.53567 -2.08931,-2.75005 -2.85714,-4.28571 -0.21296,-0.42592 0.15059,-0.97682 0,-1.42858 -0.33672,-1.01015 -1.17032,-1.82414 -1.42857,-2.85714 -0.27215,-1.08859 0,-8.52194 0,-10 0,-1.34548 -0.27089,-6.3302 0,-7.14286 0.21296,-0.63887 1.1274,-0.82623 1.42857,-1.42857 0.21296,-0.42591 -0.15058,-0.97681 0,-1.42857 0.33672,-1.01015 1.09185,-1.84699 1.42857,-2.85714 0.15059,-0.45176 0,-0.95238 0,-1.42857 0,-1.19627 -0.27159,-6.05648 0,-7.14286 0.25825,-1.033 1.09186,-1.84699 1.42857,-2.85714 0.15059,-0.45176 -0.11549,-0.9666 0,-1.42857 0.36522,-1.46089 1.06335,-2.82483 1.42857,-4.28572 0.1155,-0.46197 -0.26414,-1.03236 0,-1.42857 0.74711,-1.12066 2.11004,-1.73648 2.85715,-2.85714 0.41472,-0.62209 -0.37704,-3.53164 0,-4.28572 0.30117,-0.60234 1.21561,-0.78969 1.42857,-1.42857 2.06172,-6.18517 -2.731,0.52506 1.42857,-5.71428 1.0989,-1.64836 3.18681,-2.63737 4.28571,-4.28572 0.26415,-0.39621 -0.15058,-0.97682 0,-1.42857 0.33672,-1.01015 1.17033,-1.82414 1.42858,-2.85714 0.23098,-0.92395 -0.30117,-1.95364 0,-2.85715 0.21295,-0.63887 1.1274,-0.82623 1.42857,-1.42857 0.21296,-0.42591 -0.15059,-0.97681 0,-1.42857 0.33672,-1.01015 1.09185,-1.84699 1.42857,-2.85714 0.15058,-0.45176 -0.26414,-1.03236 0,-1.42857 0.74711,-1.12067 2.11003,-1.73648 2.85714,-2.85715 0.26414,-0.39621 0,-0.95238 0,-1.42857 0,-0.95238 -0.30117,-1.95363 0,-2.85714 0.21296,-0.63888 1.1274,-0.82623 1.42857,-1.42857 0.1601,-0.32019 0,-5.37482 0,-5.71429 0,-3.33333 0,-6.66666 0,-10 0,-1.41101 -0.2816,-6.57965 0,-7.14285 0.30117,-0.60234 1.21562,-0.7897 1.42857,-1.42858 0.30117,-0.9035 0,-1.90476 0,-2.85714 0,-0.95238 0,-1.90476 0,-2.85714 0,-2.85714 0,-5.71429 0,-8.57143 0,-0.56473 0.30506,-6.53274 0,-7.14286 -0.60233,-1.20467 -2.11003,-1.73648 -2.85714,-2.85714 -0.59064,-0.88596 -0.83793,-1.97118 -1.42857,-2.85714 -0.74711,-1.12067 -2.11003,-1.73648 -2.85714,-2.85715 -0.59064,-0.88596 -0.83793,-1.97118 -1.42857,-2.857139 -0.66654,-0.999807 -6.6045,-6.78395 -7.14286,-7.142857 -0.39622,-0.264143 -0.97682,0.150585 -1.42857,0 -1.01016,-0.336717 -1.82414,-1.170321 -2.85715,-1.428571 -0.92394,-0.230987 -1.90476,0 -2.85714,0 -0.47619,0 -1.00265,0.212959 -1.42857,0 -0.60234,-0.30117 -0.82623,-1.127402 -1.42857,-1.428572 -0.73218,-0.366087 -4.56901,0.286319 -5.71429,0 -1.46088,-0.365221 -2.82483,-1.06335 -4.28571,-1.428571 -1.24175,-0.310437 -4.30174,0 -5.71429,0 -3.80952,0 -7.61904,0 -11.42857,0 -3.80952,0 -7.61905,0 -11.42857,0 -1.15005,0 -4.81764,-0.298883 -5.71429,0 -1.01015,0.336717 -1.84699,1.091854 -2.85714,1.428571 -0.90351,0.30117 -1.90476,0 -2.85714,0 -1.90476,0 -3.80952,0 -5.71429,0 -6.66666,0 -13.33333,0 -20,0 -3.80952,0 -7.61904,0 -11.42857,0 -1.42857,0 -2.87658,0.234856 -4.28571,0 -1.48536,-0.247559 -2.80911,-1.13325 -4.28572,-1.428571 -0.60022,-0.120045 -5.41233,0.201304 -5.71428,0 -1.12067,-0.747109 -1.73648,-2.110034 -2.85715,-2.857143 -0.39621,-0.264143 -0.95238,0 -1.42857,0 -0.47619,0 -0.95238,0 -1.42857,0 -1.90476,0 -3.80952,0 -5.71428,0 -0.95238,0 -1.92326,0.186777 -2.85715,0 -1.4766,-0.295321 -2.80911,-1.133251 -4.28571,-1.428571 -0.93389,-0.186778 -1.90476,0 -2.85714,0 -1.42858,-0.476191 -2.82483,-1.06335 -4.28572,-1.428572 -0.92394,-0.230986 -1.95363,0.30117 -2.85714,0 -1.01015,-0.336717 -1.84699,-1.091854 -2.85714,-1.428571 -0.79558,-0.265192 -3.73479,0.367284 -4.28572,0 -1.12066,-0.747109 -1.73648,-2.110034 -2.85714,-2.857143 -0.39622,-0.264143 -0.97682,0.150585 -1.42857,0 -1.01016,-0.336718 -1.81303,-1.219748 -2.85715,-1.428572 -1.40082,-0.280165 -2.88488,0.280166 -4.28571,0 -1.04412,-0.208823 -1.82414,-1.17032 -2.85714,-1.428571 -0.92395,-0.230986 -1.90476,0 -2.85715,0 -0.95238,-0.47619 -1.84699,-1.091854 -2.85714,-1.428571 -0.45175,-0.150585 -0.95238,0 -1.42857,0 -1.42857,0 -2.85714,0 -4.28571,0 -0.47619,0 -0.96163,0.09339 -1.42858,0 -1.90476,-0.476191 -3.80952,-0.952381 -5.71428,-1.428572 -0.47619,-0.47619 -0.7897,-1.215612 -1.42857,-1.428571 -0.90351,-0.30117 -1.92326,0.186777 -2.85715,0 -1.4766,-0.295321 -2.82482,-1.06335 -4.28571,-1.428572 -1.29128,-0.322821 -6.89245,0 -8.57143,0 -0.48668,0 -4.94113,-0.257717 -5.71428,0 -1.01016,0.336718 -1.84699,1.091854 -2.85715,1.428572 -0.80599,0.268666 -3.34699,0 -4.28571,0 -3.80952,0 -7.61905,0 -11.42857,0 -3.80953,0 -7.61905,0 -11.42857,0 -1.50093,0 -5.72522,0.283528 -7.14286,0 -1.47661,-0.295321 -2.82483,-1.06335 -4.28572,-1.428572 -1.65318,-0.413295 -5.59454,0.309663 -7.14285,0 -1.04412,-0.208823 -1.82414,-1.170321 -2.85715,-1.428571 -1.38591,-0.34648 -2.93045,0.451754 -4.28571,0 -8.09384,-4.046919 2.12959,0.532397 -5.71429,-1.428572 -2.58562,0.861041 -2.65689,-2.314202 -4.28571,-2.857142 -0.90351,-0.30117 -1.90476,0 -2.85714,0 -0.47619,0 -1.00266,0.212958 -1.42857,0 -0.60234,-0.30117 -0.82624,-1.127402 -1.42858,-1.428572 -0.43433,-0.217168 -4.72782,0 -5.71428,0 -4.76191,0 -9.52381,0 -14.28572,0 -2.38095,0 -4.7619,0 -7.14285,0 -0.95238,0 -1.92326,0.186777 -2.85715,0 -1.4766,-0.295321 -2.80911,-1.13325 -4.28571,-1.428571 -0.93389,-0.186777 -1.90476,0 -2.85714,0 -1.42857,0 -2.85715,0 -4.28572,0 -3.33333,0 -6.66666,0 -10,0 -5.71428,0 -11.42857,0 -17.14285,0 -1.07794,0 -5.158,-0.222516 -5.71429,0 -1.59413,0.637651 -2.75005,2.089309 -4.28571,2.857143 -0.42592,0.212958 -0.95239,0 -1.42858,0 -1.42857,0 -2.88488,-0.280166 -4.28571,0 -1.04412,0.208823 -1.86851,1.033116 -2.85714,1.428571 -1.39815,0.559257 -2.82483,1.06335 -4.28572,1.428571 -0.46197,0.115494 -1.00265,-0.212958 -1.42857,0 -0.60234,0.30117 -0.78969,1.215613 -1.42857,1.428572 -0.90351,0.301169 -2.00531,-0.425918 -2.85714,0 -5.69236,2.846179 -0.006,2.85871 -5.71429,4.285714 -0.92394,0.230987 -1.90476,0 -2.85714,0 -3.33333,0 -6.66667,0 -10,0 -0.95238,0 -1.95364,-0.301169 -2.85714,0 -0.63888,0.212959 -0.82624,1.127402 -1.42858,1.428572 -0.90903,0.454515 -5.90778,-0.411692 -7.14285,0 -1.01016,0.336717 -1.82414,1.170321 -2.85715,1.428571 -0.92394,0.230986 -1.90476,0 -2.85714,0 -3.33333,0 -6.66667,0 -10,0 -7.14286,0 -14.28571,0 -21.42857,0 -10.95238,0 -21.90476,0 -32.85714,0 -3.33334,0 -6.66667,0 -10,0 -0.93873,0 -3.47972,0.268666 -4.28572,0 -1.01015,-0.336717 -1.84699,-1.091854 -2.85714,-1.428571 -0.45175,-0.150585 -0.95238,0 -1.42857,0 -1.4585,0 -9.30596,0.231346 -10,0 -1.27775,-0.425918 -1.65247,-2.254805 -2.85714,-2.857143 -0.42592,-0.212959 -0.95239,0 -1.42858,0 -0.95238,0 -1.90476,0 -2.85714,0 -3.80952,0 -7.61905,0 -11.42857,0 -15.71429,0 -31.42857,0 -47.14286,0 -5.23809,0 -10.47619,0 -15.71428,0 -1.90476,0 -3.80953,0 -5.71429,0 -0.95238,0 -1.92326,0.186777 -2.85714,0 -1.47661,-0.295321 -2.82483,-1.06335 -4.28572,-1.428572 -1.80705,-0.451764 -1.05008,0.451765 -2.85714,0 -1.460884,-0.365221 -2.824827,-1.06335 -4.285713,-1.428571 -1.557353,-0.389338 -7.668554,0.451437 -8.571428,0 -0.602339,-0.301169 -0.789695,-1.215613 -1.428572,-1.428572 -0.903508,-0.301169 -1.904762,0 -2.857143,0 -2.380952,0 -4.761904,0 -7.142857,0 -0.47619,0 -0.966599,0.115494 -1.428571,0 C 61.280555,63.039486 76.745982,67.163767 70,63.790776 c -0.610119,-0.30506 -6.578125,0 -7.142857,0 -0.476191,0 -0.952381,0 -1.428572,0 -0.47619,0 -1.002653,-0.212959 -1.428571,0 -0.602339,0.301169 -0.952381,0.952381 -1.428571,1.428571 -0.476191,0.476191 -1.215613,0.789695 -1.428572,1.428571 -0.301169,0.903508 0,1.904762 0,2.857143 0,0.476191 0.212959,1.002654 0,1.428572 -0.602338,1.204677 -2.431225,1.57939 -2.857143,2.857143 -0.301169,0.903508 0.30117,1.953635 0,2.857142 -0.212959,0.638877 -1.127402,0.826233 -1.428571,1.428572 -0.212959,0.425918 0,0.952381 0,1.428571 0,0.476191 0,0.952381 0,1.428572 0,1.904762 0,3.809524 0,5.714286"
       id="path6592"
       inkscape:connector-curvature="0" />
    <text
       xml:space="preserve"
       style="font-style:normal;font-weight:normal;font-size:40px;line-height:125%;font-family:sans-serif;letter-spacing:0px;word-spacing:0px;fill:#000000;fill-opacity:1;stroke:none;stroke-width:1px;stroke-linecap:butt;stroke-linejoin:miter;stroke-opacity:1"
       x="7.1428561"
       y="445.21936"
       id="text6594"
       sodipodi:linespacing="125%"><tspan
         sodipodi:role="line"
         id="tspan6596"
         x="7.1428561"
         y="445.21936">This is</tspan><tspan
         sodipodi:role="line"
         x="7.1428561"
         y="495.21936"
         id="tspan6598">called</tspan><tspan
         sodipodi:role="line"
         x="7.1428561"
         y="545.2193"
         id="tspan6600">&quot;The</tspan><tspan
         sodipodi:role="line"
         x="7.1428561"
         y="595.2193"
         id="tspan6602">Cloud&quot;</tspan></text>
  </g>
</svg>
